<svg xmlns="http://www.w3.org/2000/svg" viewBox="0 64 576 384">
	<path d=" M 552 64 H 112 c -20.858 0 -38.643 13.377 -45.248 32 H 24 c -13.255 0 -24 10.745 -24 24 v 272 c 0 30.928 25.072 56 56 56 h 496 c 13.255 0 24 -10.745 24 -24 V 88 c 0 -13.255 -10.745 -24 -24 -24 Z M 48 392 V 144 h 16 v 248 c 0 4.411 -3.589 8 -8 8 s -8 -3.589 -8 -8 Z m 480 8 H 111.422 c 0.374 -2.614 0.578 -5.283 0.578 -8 V 112 h 416 v 288 Z M 172 280 h 136 c 6.627 0 12 -5.373 12 -12 v -96 c 0 -6.627 -5.373 -12 -12 -12 H 172 c -6.627 0 -12 5.373 -12 12 v 96 c 0 6.627 5.373 12 12 12 Z m 28 -80 h 80 v 40 h -80 v -40 Z m -40 140 v -24 c 0 -6.627 5.373 -12 12 -12 h 136 c 6.627 0 12 5.373 12 12 v 24 c 0 6.627 -5.373 12 -12 12 H 172 c -6.627 0 -12 -5.373 -12 -12 Z m 192 0 v -24 c 0 -6.627 5.373 -12 12 -12 h 104 c 6.627 0 12 5.373 12 12 v 24 c 0 6.627 -5.373 12 -12 12 H 364 c -6.627 0 -12 -5.373 -12 -12 Z m 0 -144 v -24 c 0 -6.627 5.373 -12 12 -12 h 104 c 6.627 0 12 5.373 12 12 v 24 c 0 6.627 -5.373 12 -12 12 H 364 c -6.627 0 -12 -5.373 -12 -12 Z m 0 72 v -24 c 0 -6.627 5.373 -12 12 -12 h 104 c 6.627 0 12 5.373 12 12 v 24 c 0 6.627 -5.373 12 -12 12 H 364 c -6.627 0 -12 -5.373 -12 -12 Z" fill="#000000"/>
</svg>