<?xml version="1.0" standalone="no"?>
<!DOCTYPE svg PUBLIC "-//W3C//DTD SVG 20010904//EN"
 "http://www.w3.org/TR/2001/REC-SVG-20010904/DTD/svg10.dtd">
<svg version="1.0" xmlns="http://www.w3.org/2000/svg"
 width="720.000000pt" height="909.000000pt" viewBox="0 0 720.000000 909.000000"
 preserveAspectRatio="xMidYMid meet">

<g transform="translate(0.000000,909.000000) scale(0.100000,-0.100000)"
fill="#fff" stroke="none">
<path d="M1660 8739 c-137 -22 -299 -151 -368 -291 -38 -77 -66 -205 -57 -263
17 -120 133 -274 470 -625 71 -74 772 -780 1557 -1567 785 -788 1428 -1438
1428 -1444 0 -6 -634 -646 -1408 -1423 -1678 -1681 -1789 -1796 -1936 -1991
-106 -141 -125 -202 -101 -331 26 -140 93 -251 203 -339 78 -61 144 -91 247
-111 84 -16 94 -16 147 0 178 51 458 316 2308 2172 1352 1358 1663 1680 1756
1820 40 58 69 184 58 249 -14 88 -81 191 -256 390 -162 184 -388 415 -1338
1370 -1541 1549 -2319 2308 -2408 2351 -43 20 -157 44 -207 43 -22 -1 -65 -5
-95 -10z"/>
</g>
</svg>
